<mxfile host="app.diagrams.net" modified="2024-03-18T11:00:31.352Z" agent="Mozilla/5.0 (X11; Linux x86_64; Chromium GOST) AppleWebKit/537.36 (KHTML, like Gecko) Chrome/120.0.0.0 Safari/537.36" version="24.0.7" etag="YVSdh48jf-poVwLvbuBL" type="github">
  <diagram name="Страница — 1" id="nipPSrDNC7y0yuvlBQ2K">
    <mxGraphModel>
      <root>
        <mxCell id="0" />
        <mxCell id="1" parent="0" />
      </root>
    </mxGraphModel>
  </diagram>
</mxfile>
